Coordinates
version=1
nRows=8
nColumns=40
inDegrees=yes

Units are S.I. units (second, meters, Newtons, ...)
Angles are in degrees.

endheader
time	pelvis_tilt	pelvis_list	pelvis_rotation	pelvis_tx	pelvis_ty	pelvis_tz	hip_flexion_r	hip_adduction_r	hip_rotation_r	knee_angle_r	knee_angle_r_beta	ankle_angle_r	subtalar_angle_r	mtp_angle_r	hip_flexion_l	hip_adduction_l	hip_rotation_l	knee_angle_l	knee_angle_l_beta	ankle_angle_l	subtalar_angle_l	mtp_angle_l	lumbar_extension	lumbar_bending	lumbar_rotation	arm_flex_r	arm_add_r	arm_rot_r	elbow_flex_r	pro_sup_r	wrist_flex_r	wrist_dev_r	arm_flex_l	arm_add_l	arm_rot_l	elbow_flex_l	pro_sup_l	wrist_flex_l	wrist_dev_l
      5.20314286	     -7.13176528	     -5.76769875	     -3.63758145	      0.77719982	      0.93008636	      0.45259989	     34.30719042	     -1.70557016	     -6.73717184	     56.13380421	     56.13380421	      3.63512801	    -17.40185901	      3.42091760	     16.68228862	     -5.98090275	     -6.14233373	     22.30476908	     22.30476908	     14.41623254	    -12.63807337	      2.41388849	    -11.63832284	      6.50477997	      1.15584938	      2.80836890	    -14.29128819	     -5.31357063	     27.24540885	     46.88944319	      0.00000000	      0.00000000	      7.38606371	    -16.70515255	     -2.74377298	     63.53256321	     46.30678251	      0.00000000	      0.00000000
      5.21628571	     -7.12731045	     -5.75352622	     -3.89310316	      0.77654354	      0.93046214	      0.45290332	     34.50258873	     -1.41681916	     -6.88482055	     52.89345100	     52.89345100	      3.61723901	    -16.51893521	      3.12787859	     15.93963340	     -5.97765944	     -6.43782950	     21.81331593	     21.81331593	     14.64175894	    -12.48526222	      2.37347852	    -11.69831149	      6.56922673	      1.23171342	      1.46909331	    -14.45236188	     -5.57791176	     26.56144883	     46.91905094	      0.00000000	      0.00000000	      8.24455978	    -16.87705215	     -3.09025120	     64.47828545	     46.37014882	      0.00000000	      0.00000000
      5.22942857	     -7.16702983	     -5.72032866	     -4.14793315	      0.77592645	      0.93061321	      0.45330183	     34.54996302	     -1.16161891	     -7.14716637	     49.25009118	     49.25009118	      3.55700873	    -15.33188219	      2.62842992	     15.27886967	     -5.97008232	     -6.76276990	     21.38615631	     21.38615631	     14.87679799	    -12.29933746	      2.26604776	    -11.70562839	      6.63942116	      1.22987427	      0.23260717	    -14.58587918	     -5.87978464	     26.09066289	     46.94443721	      0.00000000	      0.00000000	      8.91860031	    -17.10631849	     -3.34240806	     65.64918799	     46.42652910	      0.00000000	      0.00000000
      5.24257143	     -7.23148116	     -5.66136595	     -4.38660863	      0.77539286	      0.93050838	      0.45383264	     34.30905165	     -0.93385256	     -7.56621565	     44.97357403	     44.97357403	      2.23783179	    -14.48352966	     -1.35374205	     14.67625574	     -5.96137346	     -7.15629391	     21.01958407	     21.01958407	     15.04660626	    -12.00329530	      1.79270292	    -11.68266735	      6.62679125	      1.01901557	     -1.01383750	    -14.48389631	     -7.60350705	     26.27378676	     47.01725115	      0.00000000	      0.00000000	      8.99643496	    -17.57602066	     -3.55109979	     68.05697315	     46.56709254	      0.00000000	      0.00000000
      5.25571429	     -7.33715126	     -5.62599607	     -4.59532381	      0.77492106	      0.93028557	      0.45448197	     34.06126233	     -0.62441274	     -7.99278824	     40.72264014	     40.72264014	      2.27414820	    -12.79128477	     -1.14770728	     14.12552583	     -5.93891293	     -7.33706743	     20.66126078	     20.66126078	     15.28943973	    -11.94604347	      1.73309871	    -11.52772007	      6.68348860	      0.94772686	     -2.09523750	    -14.53709277	     -7.71283176	     25.82815195	     47.03033337	      0.00000000	      0.00000000	      9.72512866	    -17.72549415	     -3.75099585	     68.74843003	     46.60603749	      0.00000000	      0.00000000
      5.26885714	     -7.35936631	     -5.54011546	     -4.77566469	      0.77457274	      0.92999406	      0.45522906	     33.54171860	     -0.39117205	     -8.59634052	     36.27094491	     36.27094491	      2.24941801	    -10.63030984	     -1.05052564	     13.50510651	     -5.87228844	     -7.58226157	     20.35025995	     20.35025995	     15.57021362	    -11.81079307	      1.58847649	    -11.49192122	      6.66008930	      1.00114787	     -3.20390517	    -14.57270139	     -7.87783048	     25.50296598	     47.04147525	      0.00000000	      0.00000000	     10.43483237	    -17.78239174	     -3.90089515	     69.77474412	     46.64799344	      0.00000000	      0.00000000
      5.28200000	     -7.34587044	     -5.36794380	     -4.94287972	      0.77440973	      0.92946033	      0.45607694	     32.81171824	     -0.25266882	     -9.37614841	     31.67248276	     31.67248276	      1.60052930	     -8.25512888	     -2.59213179	     12.84494163	     -5.73584507	     -7.94666888	     20.04789204	     20.04789204	     15.78007025	    -11.54731084	      1.02901170	    -11.50199695	      6.52297375	      1.12375061	     -4.59138251	    -14.37773657	     -9.27063381	     26.21607124	     47.05679724	      0.00000000	      0.00000000	     10.86296783	    -17.98167481	     -3.86086192	     71.71780206	     46.76873692	      0.00000000	      0.00000000
      5.29514286	     -7.34208573	     -5.25142237	     -5.05529740	      0.77436611	      0.92883934	      0.45708598	     32.00929923	      0.04232950	    -10.08675396	     27.22571219	     27.22571219	      1.41473215	     -5.80955626	     -1.86792692	     12.24011459	     -5.63545402	     -8.10031842	     19.83436137	     19.83436137	     16.08519525	    -11.46926252	      0.83296278	    -11.44375289	      6.46865731	      1.13094728	     -5.49763784	    -14.28195364	     -9.40146757	     25.94911264	     47.06170285	      0.00000000	      0.00000000	     11.52239484	    -18.00557662	     -3.95151363	     72.52119394	     46.80596386	      0.00000000	      0.00000000
